<?xml version="1.0" encoding="UTF-8" standalone="no"?>
<svg width="193px" height="48px" viewBox="0 0 193 48" version="1.1" xmlns="http://www.w3.org/2000/svg" xmlns:xlink="http://www.w3.org/1999/xlink" xmlns:sketch="http://www.bohemiancoding.com/sketch/ns">
    <!-- Generator: Sketch 3.3.3 (12081) - http://www.bohemiancoding.com/sketch -->
    <title>btn_google+_signin_dark_normal_web</title>
    <desc>Created with Sketch.</desc>
    <defs>
        <filter x="-50%" y="-50%" width="200%" height="200%" filterUnits="objectBoundingBox" id="filter-1">
            <feOffset dx="0" dy="2" in="SourceAlpha" result="shadowOffsetOuter1"></feOffset>
            <feGaussianBlur stdDeviation="1" in="shadowOffsetOuter1" result="shadowBlurOuter1"></feGaussianBlur>
            <feColorMatrix values="0 0 0 0 0   0 0 0 0 0   0 0 0 0 0  0 0 0 0.168 0" in="shadowBlurOuter1" type="matrix" result="shadowMatrixOuter1"></feColorMatrix>
            <feOffset dx="0" dy="0" in="SourceAlpha" result="shadowOffsetOuter2"></feOffset>
            <feGaussianBlur stdDeviation="1" in="shadowOffsetOuter2" result="shadowBlurOuter2"></feGaussianBlur>
            <feColorMatrix values="0 0 0 0 0   0 0 0 0 0   0 0 0 0 0  0 0 0 0.084 0" in="shadowBlurOuter2" type="matrix" result="shadowMatrixOuter2"></feColorMatrix>
            <feMerge>
                <feMergeNode in="shadowMatrixOuter1"></feMergeNode>
                <feMergeNode in="shadowMatrixOuter2"></feMergeNode>
                <feMergeNode in="SourceGraphic"></feMergeNode>
            </feMerge>
        </filter>
        <rect id="path-2" x="4" y="4" width="185" height="40" rx="2"></rect>
    </defs>
    <g id="Google-Button" stroke="none" stroke-width="1" fill="none" fill-rule="evenodd" sketch:type="MSPage">
        <g id="btn_google+_signin_dark_normal_web" sketch:type="MSArtboardGroup">
            <g id="button-bg" filter="url(#filter-1)">
                <use fill="#DC4E41" fill-rule="evenodd" sketch:type="MSShapeGroup" xlink:href="#path-2"></use>
                <use fill="none" xlink:href="#path-2"></use>
                <use fill="none" xlink:href="#path-2"></use>
                <use fill="none" xlink:href="#path-2"></use>
            </g>
            <path d="M20,23 L20,25.4 L23.97,25.4 C23.81,26.43 22.77,28.42 20,28.42 C17.61,28.42 15.66,26.44 15.66,24 C15.66,21.56 17.61,19.58 20,19.58 C21.36,19.58 22.27,20.16 22.79,20.66 L24.69,18.83 C23.47,17.69 21.89,17 20,17 C16.13,17 13,20.13 13,24 C13,27.87 16.13,31 20,31 C24.04,31 26.72,28.16 26.72,24.16 C26.72,23.7 26.67,23.35 26.61,23 L20,23 L20,23 Z" id="Shape" fill="#FFFFFF" sketch:type="MSShapeGroup"></path>
            <path d="M35,23 L33,23 L33,21 L31,21 L31,23 L29,23 L29,25 L31,25 L31,27 L33,27 L33,25 L35,25" id="Shape-Copy" fill="#FFFFFF" sketch:type="MSShapeGroup"></path>
            <text id="Sign-in-with-Google" sketch:type="MSTextLayer" font-family="Roboto" font-size="14" font-weight="420" letter-spacing="0.21875" fill="#FFFFFF">
                <tspan x="54" y="29">Sign in with Google</tspan>
            </text>
        </g>
    </g>
</svg>