<?xml version="1.0" encoding="UTF-8" standalone="no"?>
<svg width="193px" height="48px" viewBox="0 0 193 48" version="1.1" xmlns="http://www.w3.org/2000/svg" xmlns:xlink="http://www.w3.org/1999/xlink" xmlns:sketch="http://www.bohemiancoding.com/sketch/ns">
    <!-- Generator: Sketch 3.3.3 (12081) - http://www.bohemiancoding.com/sketch -->
    <title>btn_google+_signin_dark_disabled_web</title>
    <desc>Created with Sketch.</desc>
    <defs>
        <rect id="path-1" x="0" y="0" width="185" height="40" rx="2"></rect>
    </defs>
    <g id="Google-Button" stroke="none" stroke-width="1" fill="none" fill-rule="evenodd" sketch:type="MSPage">
        <g id="btn_google+_signin_dark_disabled_web" sketch:type="MSArtboardGroup">
            <g id="button-copy" sketch:type="MSLayerGroup" transform="translate(4.000000, 4.000000)">
                <g id="button-bg">
                    <use fill-opacity="0.08" fill="#000000" fill-rule="evenodd" sketch:type="MSShapeGroup" xlink:href="#path-1"></use>
                    <use fill="none" xlink:href="#path-1"></use>
                    <use fill="none" xlink:href="#path-1"></use>
                    <use fill="none" xlink:href="#path-1"></use>
                </g>
            </g>
            <text id="Sign-in-with-Google" sketch:type="MSTextLayer" font-family="Roboto" font-size="14" font-weight="420" letter-spacing="0.21875" fill="#000000">
                <tspan x="54" y="29">Sign in with Google</tspan>
            </text>
            <g id="logo_google_plus_32px_clr" sketch:type="MSLayerGroup" transform="translate(13.000000, 17.000000)" fill-opacity="0.4" fill="#000000">
                <path d="M7,6 L7,8.4 L10.97,8.4 C10.81,9.43 9.77,11.42 7,11.42 C4.61,11.42 2.66,9.44 2.66,7 C2.66,4.56 4.61,2.58 7,2.58 C8.36,2.58 9.27,3.16 9.79,3.66 L11.69,1.83 C10.47,0.69 8.89,0 7,0 C3.13,0 0,3.13 0,7 C0,10.87 3.13,14 7,14 C11.04,14 13.72,11.16 13.72,7.16 C13.72,6.7 13.67,6.35 13.61,6 L7,6 L7,6 Z" id="Shape" sketch:type="MSShapeGroup"></path>
                <path d="M22,6 L20,6 L20,4 L18,4 L18,6 L16,6 L16,8 L18,8 L18,10 L20,10 L20,8 L22,8" id="Shape" sketch:type="MSShapeGroup"></path>
            </g>
        </g>
    </g>
</svg>